<svg version="1.1" xmlns="http://www.w3.org/2000/svg" style="display: block;" viewBox="0 0 1448 2048" width="1448" height="2048">
<path transform="translate(0,0)" fill="rgb(20,48,79)" d="M 723.254 361.64 C 729.862 364.573 755.958 391.187 763.536 397.411 C 782.92 413.33 803.679 428.098 824.739 441.74 C 930.829 510.459 1055.32 550.577 1180.57 564.228 C 1214.65 567.943 1248.72 569.248 1282.97 569.985 C 1297.72 724.143 1283.88 879.7 1242.13 1028.83 C 1162.64 1316.83 982.754 1539.9 723.772 1686.92 C 606.478 1622.38 502.049 1536.82 415.694 1434.52 C 216.095 1195.01 136.566 877.343 164.404 569.979 C 371.658 566.672 570.608 507.738 723.254 361.64 z M 202.044 609.954 C 196.991 670.781 198.675 732.862 203.987 793.608 C 223.65 1018.43 303.319 1238.5 450.169 1411.82 C 527.602 1502.91 620.161 1579.97 723.779 1639.61 C 767.716 1612.95 810.137 1584.99 850.49 1553.1 C 1034.5 1407.7 1157.03 1207.46 1212.66 980.438 C 1242.3 859.338 1253.42 734.445 1245.64 610.012 C 1051.63 599.81 873.87 544.067 723.645 416.957 C 580.806 540.385 389.204 603.618 202.044 609.954 z"/>
<path transform="translate(0,0)" fill="rgb(5,51,69)" d="M 760.741 576.27 C 768.923 575.953 777.051 575.76 785.232 576.231 C 833.02 578.986 884.189 603.937 910.555 644.85 C 916.953 654.776 917.262 667.846 924.009 677.172 C 927.762 682.36 936.366 684.768 941.469 688.53 C 945.793 691.718 949.745 696.014 953.271 700.041 C 973.156 722.756 976.37 752.589 974.326 781.542 C 990.13 797.312 1001.44 813.097 1007.9 834.858 C 1014.38 856.664 1015.81 893.744 1005.07 914.024 C 1001.1 921.523 994.582 928.256 992.92 936.768 C 991.512 943.977 993.06 952.494 992.997 959.883 C 992.853 977.058 986.026 997.715 977.87 1012.6 C 961.123 1043.16 935.531 1060.61 902.746 1070.36 C 898.298 1076.81 893.942 1083.19 888.426 1088.8 C 868.885 1108.67 838.408 1117.35 811.089 1117.5 C 787.783 1117.63 760.918 1111.13 744.152 1094.02 C 739.783 1089.57 735.555 1083.58 734.096 1077.43 C 731.198 1065.2 733.104 996.757 733.362 979.527 C 737.801 973.854 744.089 969.04 749.449 964.237 C 762.88 952.203 782.872 935.934 793.492 922.212 C 794.009 912.279 793.667 902.201 793.64 892.25 C 793.382 875.159 792.734 857.809 793.993 840.755 C 801.413 830.553 828.292 804.495 838.732 795.977 C 846.208 796.317 853.468 796.653 860.231 792.871 C 867.923 788.569 870.343 781.07 872.449 773.145 C 871.056 768.19 869.904 763.119 866.311 759.223 C 862.139 754.698 856.069 752.166 849.99 751.801 C 843.343 751.402 836.997 753.678 832.263 758.415 C 823.359 767.325 828.334 776.114 823.132 782.865 C 819.707 787.31 814.099 791.178 809.973 795.037 C 798.162 806.085 786.581 817.264 774.404 827.922 C 771.92 856.409 774.58 886.031 773.671 914.707 C 760.943 926.87 747.283 940.478 732.833 950.433 C 733.669 936.99 732.985 923.136 733 909.653 L 733.028 820.477 C 733.001 802.112 732.355 783.536 733.495 765.217 C 743.073 751.604 763.817 735.214 776.65 723.318 C 789.125 711.753 801.114 699.383 814.023 688.338 C 823.099 687.807 832.588 686.037 839.417 679.492 C 842.815 676.235 844.671 672.082 844.555 667.353 C 844.408 661.376 841.224 655.295 836.94 651.248 C 831.83 646.488 824.963 644.083 818.001 644.615 C 812.745 644.967 807.908 646.757 804.473 650.899 C 798.275 658.373 798.056 666.818 799.049 675.98 C 786.885 683.391 765.8 705.42 754.582 715.976 C 747.241 722.884 739.369 729.324 732.31 736.489 C 733.792 718.633 733.236 700.352 733.316 682.433 C 733.456 651.049 733.412 619.664 733.183 588.28 C 741.519 579.227 749.243 578.23 760.741 576.27 z M 830.06 948.642 C 830.081 966.422 831.727 985.475 829.869 1003.07 L 829.106 1004.23 C 820.268 1017.49 783.946 1041.55 780.884 1052.67 C 782.011 1056.98 786.507 1061.92 790.475 1064.05 C 792.579 1065.18 795.031 1064.66 797.068 1063.65 C 799.759 1062.33 802.712 1059.32 804.688 1057.12 C 815.309 1046.81 843.766 1024.48 849.736 1013.56 C 851.564 1010.22 852.074 1006.32 852.107 1002.56 C 852.227 988.977 844.832 960.346 854.796 950.353 C 863.326 941.796 872.737 933.997 881.448 925.591 C 890.557 916.802 899.755 905.55 909.962 898.341 C 917.877 892.75 928.854 893.81 936.325 887.236 C 940.057 883.953 941.439 879.635 941.51 874.769 C 941.595 868.978 940.504 862.564 936.428 858.19 C 932.24 853.694 926.005 850.623 919.856 850.544 C 916.961 850.506 913.767 850.728 910.91 851.216 C 904.078 854.017 898.25 857.155 895.111 864.355 C 891.926 871.657 893.038 880.461 889.464 887.556 C 882.86 900.668 865.236 912.503 854.416 922.481 C 845.615 930.598 837.216 939.014 830.06 948.642 z"/>
<path transform="translate(0,0)" fill="rgb(5,51,69)" d="M 522.38 678.85 C 525.01 670.249 527.158 661.607 530.918 653.397 C 542.15 628.873 564.147 609.146 587.713 596.676 C 619.707 579.746 662.473 568.958 698.181 580.107 C 703.09 581.639 709.654 584.554 712.142 589.319 C 713.595 592.102 713.559 596.991 713.64 600.051 C 714.83 645.201 713.567 690.834 713.522 736.037 L 713.362 783.473 C 713.353 792.908 714.056 802.561 712.758 811.918 L 712.016 813 C 706.031 809.03 666.656 771.178 661.54 764.857 C 659.937 745.465 661.062 725.383 661.055 705.914 C 661.049 689.01 659.706 670.947 661.748 654.197 C 666.9 647.623 671.188 642.557 672.436 634.029 C 672.566 633.143 672.697 632.27 672.802 631.38 C 669.585 623.923 666.89 617.977 658.903 614.567 C 653.09 612.085 646.334 612.469 640.623 615.062 C 635.264 617.495 630.81 621.879 628.83 627.485 C 627.015 632.625 627.745 637.892 630.232 642.666 C 632.867 647.725 637.624 651.459 642.026 654.92 L 641.439 730.503 C 641.312 744.56 640.427 758.959 641.42 772.976 C 641.599 773.257 641.775 773.539 641.958 773.818 C 653.569 791.575 706.021 829.704 711.753 842.326 C 714.04 847.362 714.641 886.191 713.695 892.895 C 713.581 893.705 713.324 894.035 712.951 894.67 C 705.946 893.628 700.956 885.699 694.504 882.843 C 676.9 875.049 662.037 877.68 643.893 876.565 C 632.534 867.653 622.522 856.628 611.907 846.821 C 600.817 836.575 580.165 820.322 571.896 809.175 L 571.651 808.118 C 569.562 798.661 568.872 760.808 571.737 751.839 C 573.948 744.915 580.82 739.882 581.136 732.165 C 581.453 724.402 576.847 717.882 570.513 713.848 C 565.407 710.596 559.604 709.079 553.628 710.675 C 547.567 712.265 542.408 716.241 539.325 721.696 C 537.099 725.719 536.366 730.26 537.694 734.699 C 539.82 741.8 546.999 746.593 548.898 753.639 C 552.569 767.254 548.526 797.756 549.338 813.886 C 564.471 833.65 586.744 851.472 604.997 868.752 C 613.488 876.791 621.903 886.498 631.254 893.403 C 634.024 895.448 636.56 896.406 639.945 896.928 C 645.597 897.799 652.008 896.599 657.724 896.365 C 674.802 895.668 691.009 900.608 701.899 914.411 C 708.704 923.035 712.54 934.671 713.551 945.529 C 712.321 947.777 711.688 948.503 709.131 949.173 C 708.047 949.457 608.708 948.817 601.348 948.191 C 597.041 947.824 593.56 947.313 589.873 944.873 C 579.176 937.795 569.847 925.997 560.898 916.822 C 552.52 908.231 543.759 900.123 534.854 892.085 C 534.754 883.485 534.954 875.246 528.374 868.678 C 524.56 864.871 519.363 863.245 514.048 863.371 C 507.174 863.521 500.684 866.573 496.185 871.774 C 492.271 876.328 490.141 882.576 490.921 888.575 C 491.623 893.983 494.713 898.472 499.15 901.547 C 506.253 906.469 514.422 907.087 522.754 907.902 C 529.534 912.771 535.181 919.087 541.042 924.995 C 555.296 939.364 572.835 959.272 588.926 971.023 C 604.727 970.763 704.625 967.546 711.63 971.423 C 712.915 974.062 713.289 976.712 713.495 979.6 C 714.374 991.893 714.565 1073.34 712.06 1079.81 C 706.449 1094.29 689.274 1105 675.56 1110.52 C 648.003 1121.62 611.931 1118.96 584.86 1107.34 C 564.817 1098.74 554.393 1088.58 543.438 1070.17 C 510.487 1061.4 487.151 1045.15 469.81 1015.11 C 455.499 990.324 451.027 963.261 454.133 934.937 C 450.29 929.121 446.486 923.402 443.362 917.153 C 440.938 912.481 439.054 907.234 437.649 902.174 C 429.48 872.766 433.236 838.609 448.346 811.927 C 454.563 800.177 462.44 790.997 471.712 781.539 C 467.23 755.608 470.838 728.701 486.418 706.932 C 495.993 693.553 508.063 686.206 522.38 678.85 z M 645.389 1040.87 C 653.14 1040.85 665.509 1042.57 671.79 1037.67 C 673.308 1035.15 674.494 1030.59 673.741 1027.66 C 673.339 1026.1 672.607 1025.87 671.419 1024.88 C 657.745 1021.15 620.846 1024.3 603.563 1023.37 C 595.403 1016.27 590.176 1008.08 578.263 1008.9 C 577.1 1008.98 575.959 1009.1 574.804 1009.26 C 568.219 1012.27 562.26 1015.79 559.647 1023.02 C 557.572 1028.76 558.201 1035.6 560.863 1041.05 C 563.236 1045.92 568.257 1050.73 573.539 1052.22 C 584.947 1055.44 595.326 1043.33 606.11 1041.24 C 618.571 1038.83 632.736 1040.86 645.389 1040.87 z"/>
<path transform="translate(0,0)" fill="rgb(5,51,69)" d="M 841.777 1175.91 C 850.137 1176.46 858.837 1176.35 867.184 1175.71 C 878.742 1195.03 890.163 1214.43 901.445 1233.91 L 934.275 1175.95 C 943.746 1176.37 953.245 1176.09 962.721 1175.97 L 962.713 1312.02 C 953.7 1311.99 944.669 1312.24 935.656 1312.36 L 935.645 1254.5 L 935.636 1220.9 L 902.244 1280.97 L 868.67 1226.01 L 868.689 1312.37 C 859.723 1312.06 850.715 1312.12 841.742 1312.02 L 841.777 1175.91 z"/>
<path transform="translate(0,0)" fill="rgb(5,51,69)" d="M 513.372 1174.27 C 531.33 1172.52 546.968 1175.09 562.822 1183.76 L 560.704 1214.01 C 559.792 1212.95 558.841 1211.93 557.852 1210.94 C 548.337 1201.52 535.535 1198.11 522.412 1198.29 C 516.73 1198.37 509.401 1199.56 505.439 1204.01 C 503.151 1206.57 502.102 1209.84 502.497 1213.25 C 504.878 1233.82 545.83 1227.28 563.809 1242.49 C 570.896 1248.49 574.152 1256.51 574.723 1265.65 C 575.487 1277.85 572.945 1288.92 564.645 1298.15 C 553.436 1310.61 537.557 1313.9 521.506 1314.63 C 505.802 1313.77 489.602 1311.36 476.268 1302.44 C 476.878 1291 477.136 1279.51 477.548 1268.06 C 480.23 1272.39 483.526 1276.54 487.466 1279.79 C 498.604 1288.99 512.953 1291.32 526.995 1289.77 C 533.945 1289 541.803 1286.75 546.121 1280.83 C 548.676 1277.32 549.035 1272.68 548.03 1268.54 C 544.89 1255.62 521.705 1255.98 510.983 1253.83 C 504.961 1252.62 498.921 1250.5 493.606 1247.4 C 485.817 1242.86 479.944 1236.31 477.728 1227.44 C 475.121 1217 476.361 1202.76 482.068 1193.49 C 489.108 1182.06 500.805 1177.11 513.372 1174.27 z"/>
<path transform="translate(0,0)" fill="rgb(20,48,79)" d="M 736.613 1234.54 C 740.194 1233.08 744.284 1233.66 747.319 1236.06 C 750.354 1238.45 751.864 1242.3 751.273 1246.12 C 750.682 1249.94 748.081 1253.15 744.464 1254.52 C 738.969 1256.6 732.821 1253.87 730.672 1248.41 C 728.523 1242.94 731.171 1236.75 736.613 1234.54 z"/>
<path transform="translate(0,0)" fill="rgb(5,51,69)" d="M 638.094 1176.05 L 637.954 1312.06 L 609.805 1312.02 L 609.839 1175.86 C 619.241 1176.38 628.682 1176.13 638.094 1176.05 z"/>
<path transform="translate(0,0)" fill="rgb(5,51,69)" d="M 736.867 1173.8 C 736.696 1170.51 735.622 1164.28 737.828 1161.59 C 738.452 1160.83 739.181 1160.32 739.969 1159.74 C 742.655 1159.98 742.556 1160.36 744.243 1162.31 C 745.348 1166.08 744.879 1169.78 744.63 1173.65 C 764.146 1174.94 781.358 1180.91 794.622 1195.94 C 805.898 1208.72 809.953 1224.06 811.037 1240.72 C 815.158 1240.53 820.999 1239.48 824.383 1242.32 C 825.018 1242.85 825.121 1243.03 825.731 1243.71 C 825.708 1245.36 826.033 1245.28 824.728 1246.58 C 821.276 1250.02 815.182 1248.95 810.716 1248.81 C 801.261 1249.09 791.799 1249.09 782.344 1248.8 C 779.646 1248.87 777.095 1248.84 774.415 1248.5 C 772.459 1246.84 772.123 1246.72 771.445 1244.12 L 772.946 1241.81 C 775.982 1239.86 778.902 1240.51 782.323 1240.81 C 781.229 1231.51 779.155 1222.79 773.665 1215.04 C 766.378 1204.74 756.834 1200.83 744.799 1198.65 C 744.883 1203.68 744.983 1208.56 744.235 1213.55 C 742.077 1213.51 740.287 1213.3 738.197 1212.75 C 735.551 1208.5 736.57 1203.63 736.786 1198.75 C 737.259 1190.45 736.979 1182.11 736.867 1173.8 z"/>
<path transform="translate(0,0)" fill="rgb(20,48,79)" d="M 811.037 1240.72 C 815.158 1240.53 820.999 1239.48 824.383 1242.32 C 825.018 1242.85 825.121 1243.03 825.731 1243.71 C 825.708 1245.36 826.033 1245.28 824.728 1246.58 C 821.276 1250.02 815.182 1248.95 810.716 1248.81 C 801.261 1249.09 791.799 1249.09 782.344 1248.8 C 779.646 1248.87 777.095 1248.84 774.415 1248.5 C 772.459 1246.84 772.123 1246.72 771.445 1244.12 L 772.946 1241.81 C 775.982 1239.86 778.902 1240.51 782.323 1240.81 C 791.896 1240.95 801.47 1241.2 811.037 1240.72 z"/>
<path transform="translate(0,0)" fill="rgb(20,48,79)" d="M 736.867 1173.8 C 736.696 1170.51 735.622 1164.28 737.828 1161.59 C 738.452 1160.83 739.181 1160.32 739.969 1159.74 C 742.655 1159.98 742.556 1160.36 744.243 1162.31 C 745.348 1166.08 744.879 1169.78 744.63 1173.65 C 745.37 1186.75 742.335 1200.81 744.235 1213.55 C 742.077 1213.51 740.287 1213.3 738.197 1212.75 C 735.551 1208.5 736.57 1203.63 736.786 1198.75 C 737.259 1190.45 736.979 1182.11 736.867 1173.8 z"/>
<path transform="translate(0,0)" fill="rgb(5,51,69)" d="M 550.543 1339.57 C 561.458 1336.81 573.012 1340.17 580.745 1348.36 C 588.478 1356.54 591.182 1368.26 587.814 1379 C 584.445 1389.75 575.531 1397.83 564.51 1400.13 C 547.954 1403.59 531.673 1393.17 527.872 1376.69 C 524.071 1360.21 534.145 1343.71 550.543 1339.57 z M 561.456 1392.41 C 574.018 1390.62 582.759 1379 581.002 1366.43 C 579.245 1353.86 567.652 1345.08 555.08 1346.8 C 542.453 1348.53 533.629 1360.18 535.394 1372.8 C 537.158 1385.43 548.84 1394.21 561.456 1392.41 z"/>
<path transform="translate(0,0)" fill="rgb(5,51,69)" d="M 811.301 1339.63 C 828.003 1335.28 845.053 1345.37 849.273 1362.1 C 853.493 1378.84 843.267 1395.81 826.497 1399.9 C 809.915 1403.94 793.177 1393.85 789.004 1377.3 C 784.831 1360.75 794.785 1343.93 811.301 1339.63 z M 823.44 1392.24 C 835.724 1389.94 843.933 1378.27 841.937 1365.93 C 839.941 1353.6 828.468 1345.1 816.087 1346.8 C 807.806 1347.93 800.789 1353.47 797.756 1361.26 C 794.724 1369.04 796.151 1377.87 801.486 1384.3 C 806.82 1390.74 815.224 1393.77 823.44 1392.24 z"/>
<path transform="translate(0,0)" fill="rgb(5,51,69)" d="M 736.867 1173.8 C 736.979 1182.11 737.259 1190.45 736.786 1198.75 C 724.941 1200.92 715.698 1205.01 708.624 1215.2 C 703.185 1223.04 701.297 1231.43 700.02 1240.73 C 703.613 1240.49 706.948 1239.83 710.106 1241.88 L 711.594 1244.18 C 710.71 1246.9 710.367 1246.97 708.159 1248.58 C 705.389 1248.78 702.657 1248.87 699.881 1248.86 C 690.452 1249.17 680.967 1248.91 671.532 1248.84 C 667.7 1248.94 662.245 1249.74 659.012 1247.34 C 657.38 1246.13 657.305 1245.8 656.969 1243.92 C 657.282 1243.58 657.584 1243.24 657.908 1242.92 C 661.476 1239.39 667.208 1240.56 671.773 1240.83 C 672.81 1226.53 678.104 1212.03 686.821 1200.63 C 699.454 1184.12 716.655 1176.36 736.867 1173.8 z"/>
<path transform="translate(0,0)" fill="rgb(20,48,79)" d="M 700.02 1240.73 C 703.613 1240.49 706.948 1239.83 710.106 1241.88 L 711.594 1244.18 C 710.71 1246.9 710.367 1246.97 708.159 1248.58 C 705.389 1248.78 702.657 1248.87 699.881 1248.86 C 690.452 1249.17 680.967 1248.91 671.532 1248.84 C 667.7 1248.94 662.245 1249.74 659.012 1247.34 C 657.38 1246.13 657.305 1245.8 656.969 1243.92 C 657.282 1243.58 657.584 1243.24 657.908 1242.92 C 661.476 1239.39 667.208 1240.56 671.773 1240.83 C 681.215 1241.04 690.581 1241.1 700.02 1240.73 z"/>
<path transform="translate(0,0)" fill="rgb(5,51,69)" d="M 671.532 1248.84 C 680.967 1248.91 690.452 1249.17 699.881 1248.86 C 701.56 1261.6 705.449 1272.68 716.087 1280.66 C 722.392 1285.39 729.237 1287.45 736.877 1288.9 C 736.944 1297.45 737.192 1306.04 736.874 1314.59 C 721.538 1314.24 705.464 1308.13 693.918 1298.03 C 679.075 1285.05 672.913 1268.08 671.532 1248.84 z"/>
<path transform="translate(0,0)" fill="rgb(5,51,69)" d="M 782.344 1248.8 C 791.799 1249.09 801.261 1249.09 810.716 1248.81 C 808.221 1269.3 800.744 1286.31 784.203 1299.34 C 772.882 1308.19 759.155 1313.43 744.814 1314.36 C 745.124 1305.97 744.887 1297.61 744.673 1289.22 C 753.178 1288.17 760.759 1286.31 767.63 1280.89 C 777.809 1272.88 780.995 1261.14 782.344 1248.8 z"/>
<path transform="translate(0,0)" fill="rgb(5,51,69)" d="M 864.15 1337.52 C 874.254 1344.53 899.491 1373.32 909.245 1383.48 C 909.19 1375.39 907.214 1345.25 909.663 1339.63 C 912.238 1339.32 914.033 1339.37 916.563 1339.97 C 919.154 1352.2 917.203 1386.47 917.17 1401.18 C 914.276 1400.83 876.918 1361.53 872.187 1356.72 C 872.209 1360.94 873.178 1396.48 872.407 1398.05 C 872.078 1398.71 871.427 1399.16 870.937 1399.72 C 868.345 1400.15 867.268 1400.1 864.804 1399.18 C 861.751 1383.29 864.015 1354.84 864.15 1337.52 z"/>
<path transform="translate(0,0)" fill="rgb(5,51,69)" fill-opacity="0.988235" d="M 654.815 1339.14 C 657.516 1339.08 659.942 1339.09 662.6 1339.6 C 664.245 1353.48 659.039 1372.38 664.942 1385.12 C 666.475 1388.43 669.074 1391.22 672.664 1392.24 C 676.802 1393.41 682.139 1392.81 685.791 1390.5 C 698.316 1382.56 690.281 1353.07 693.014 1339.78 L 694.738 1338.66 C 697.094 1338.82 698.024 1339.31 699.998 1340.61 L 700.409 1344.75 C 700.383 1358.42 704.279 1383.16 694.682 1393.86 C 690.74 1398.25 684.985 1400.51 679.164 1400.75 C 672.643 1401.02 666.054 1398.88 661.284 1394.33 C 650.862 1384.4 654.716 1353.5 654.815 1339.14 z"/>
<path transform="translate(0,0)" fill="rgb(5,51,69)" d="M 945.872 1339.24 L 947.109 1339.15 C 953.661 1338.69 963.163 1339.12 968.328 1343.64 L 968.183 1346.07 C 963.769 1351.83 954.956 1344.88 948.619 1346.37 C 945.4 1347.13 942.704 1349.18 940.915 1351.9 C 940.261 1363.43 966.348 1366.68 970.117 1379.89 C 971.17 1383.58 970.339 1387.01 968.564 1390.33 C 965.128 1396.76 960.679 1398.63 954.127 1400.74 C 945.96 1400.94 937.241 1399.84 930.837 1394.29 L 930.942 1391.97 C 936.445 1386.13 948.329 1396.33 956.268 1392.11 C 959.153 1390.57 960.597 1388.62 961.647 1385.59 C 961.29 1373.19 939.082 1370.06 933.286 1358.46 C 932.113 1356.11 931.35 1353.26 932.288 1350.7 C 934.298 1345.22 940.783 1341.39 945.872 1339.24 z"/>
<path transform="translate(0,0)" fill="rgb(5,51,69)" d="M 492.835 1339.23 C 500.693 1338.61 508.674 1339.1 515.447 1343.61 L 515.646 1346.16 C 511.043 1351.83 501.327 1344.79 495.043 1346.29 C 492.729 1346.84 490.301 1348.64 489.24 1350.77 C 483.193 1362.9 512.774 1366.08 516.594 1378.09 C 517.998 1382.5 517.094 1388.32 514.678 1392.24 C 511.34 1397.65 505.755 1399.43 499.961 1400.83 C 493.948 1400.9 482.661 1399.46 478.248 1395.16 C 476.976 1393.92 477.364 1393.65 477.356 1391.99 C 478.148 1391.21 479.349 1389.64 480.364 1389.24 C 484.733 1387.52 488.965 1391.63 492.937 1393.22 C 496.467 1394.64 499.969 1393.84 503.255 1392.13 C 506.129 1390.63 507.663 1388.69 508.701 1385.67 C 508.321 1372.91 485.435 1370.04 479.888 1357.77 C 478.766 1355.29 478.454 1352.91 479.486 1350.35 C 481.602 1345.11 487.913 1341.38 492.835 1339.23 z"/>
<path transform="translate(0,0)" fill="rgb(5,51,69)" d="M 712.591 1339.17 C 725.201 1339.07 739.757 1337.48 752.124 1339.56 C 752.924 1341.95 752.834 1343.83 752.684 1346.32 C 747.996 1347.69 741.728 1346.97 736.801 1346.96 L 736.801 1383.5 C 736.876 1387.9 737.979 1396.14 735.575 1399.82 C 733.154 1399.89 731.512 1399.83 729.254 1398.91 C 726.526 1386.58 728.602 1360.6 728.675 1346.96 C 723.912 1346.85 719.256 1347.99 714.615 1346.56 C 712.226 1344.02 712.722 1342.46 712.591 1339.17 z"/>
<path transform="translate(0,0)" fill="rgb(5,51,69)" d="M 602.984 1339.17 C 605.71 1339.1 608.069 1338.93 610.66 1339.88 C 612.615 1356.64 611.115 1375.2 611.067 1392.17 C 620.981 1392.07 631.05 1391.65 640.934 1392.44 C 642.38 1394.71 642.121 1397.41 642.3 1400.07 L 602.947 1400.07 L 602.984 1339.17 z"/>
<path transform="translate(0,0)" fill="rgb(5,51,69)" d="M 766.222 1339.14 C 768.929 1339.22 771.354 1338.88 773.709 1340.3 C 776.325 1357.27 774.296 1382.47 774.221 1400.11 C 771.636 1400.12 768.694 1400.5 766.47 1399.02 C 764.515 1379.6 766.105 1358.72 766.222 1339.14 z"/>
<path transform="translate(0,0)" fill="rgb(20,48,79)" d="M 736.877 1288.9 C 736.64 1284.89 735.856 1280.72 737.851 1277.09 L 739.917 1275.36 C 742.116 1275.7 742.449 1275.72 743.765 1277.54 C 745.835 1280.4 744.873 1285.84 744.673 1289.22 C 744.887 1297.61 745.124 1305.97 744.814 1314.36 C 744.915 1318.5 746.004 1325.07 742.805 1328.23 C 742.177 1328.85 741.938 1328.98 741.154 1329.56 C 738.932 1328.86 738.2 1328.24 737.215 1326.03 C 735.881 1323.03 736.689 1317.85 736.874 1314.59 C 737.192 1306.04 736.944 1297.45 736.877 1288.9 z"/>
</svg>